<svg id="Layer_1" data-name="Layer 1" xmlns="http://www.w3.org/2000/svg" viewBox="0 0 503.06 202.56"><defs><style>.cls-1,.cls-3{fill:#506567;}.cls-1,.cls-2{fill-rule:evenodd;}.cls-2{fill:#3dbeb3;}</style></defs><path class="cls-1" d="M68.2,313.81A101.5,101.5,0,1,0,226.9,401,95.79,95.79,0,1,1,68.2,313.81Z" transform="translate(-23.93 -296.57)"/><path class="cls-2" d="M180.8,453A85.65,85.65,0,1,0,46.89,379.41,80.83,80.83,0,1,1,180.8,453Z" transform="translate(-23.93 -296.57)"/><path class="cls-1" d="M147.9,407.45c6.76-.88,13.16-4.44,19-10.66a3.71,3.71,0,0,0,1.07-3.2c7.65-9.24,12.27-22,12.27-31.82,0-15.12-7.29-16.72-19.2-19.21h-.18a4.37,4.37,0,0,0-3.91-2.49,4.44,4.44,0,0,0-4.62,4.45c0,2.31,2,4.09,4.62,4.09a4.75,4.75,0,0,0,2.67-.89h0c11.73,2.49,14.93,3.2,14.93,14,0,8.53-4.45,20.09-11,28.44a3.81,3.81,0,0,0-3,1.42c-3.55,3.56-8.88,8-15.46,8-6.4,0-11.91-4.44-15.29-8a4.84,4.84,0,0,0-3-1.42c-6.58-8.35-11-19.91-11-28.44,0-10.85,3-11.56,14.76-14h0a5.36,5.36,0,0,0,2.85.89,4.38,4.38,0,0,0,4.61-4.09,4.55,4.55,0,0,0-4.61-4.45,4.68,4.68,0,0,0-4.1,2.49h0c-12.08,2.49-19.38,4.09-19.38,19.21,0,9.77,4.81,22.58,12.45,32a4,4,0,0,0,.89,3q8.81,9.33,18.67,10.66l-.18,19c0,13.16-11.38,23.82-25.42,23.82s-25.6-10.66-25.6-23.82V409.76c8.18-1.24,14.4-7.81,14.4-15.82,0-8.71-7.82-16-17.25-16s-17.24,7.28-17.24,16c0,8,6.22,14.58,14.4,15.82v16.72c0,16.18,14,29.16,31.29,29.16s31.29-13,31.29-29.16v-19Z" transform="translate(-23.93 -296.57)"/><path class="cls-2" d="M87.81,404.79a11.13,11.13,0,0,0,11.38-10.85c0-5.86-5.16-10.66-11.38-10.66-6.4,0-11.38,4.8-11.38,10.66,0,6.05,5,10.85,11.38,10.85Z" transform="translate(-23.93 -296.57)"/><path class="cls-3" d="M254.29,382.51h10.13l6.66,18.25c.82,2.42,1.54,5.05,2.36,7.58h.26c.82-2.53,1.52-5.16,2.34-7.58l6.45-18.25h10.13v41.07h-8.45V408.51c0-4,.75-10,1.18-13.95h-.25l-3.37,9.71L275.93,420h-5.16L265,404.27l-3.28-9.71h-.25c.44,4,1.19,9.94,1.19,13.95v15.07h-8.33Z" transform="translate(-23.93 -296.57)"/><path class="cls-3" d="M302.29,382.51H328v7.79H311.58v8.25h14v7.78h-14v9.46h17.07v7.79H302.29Z" transform="translate(-23.93 -296.57)"/><path class="cls-3" d="M336.82,382.51h11.61c12.54,0,20.62,6.24,20.62,20.36S361,423.58,349,423.58H336.82Zm11,33.59c7,0,11.68-3.41,11.68-13.23S354.83,390,347.86,390H346.1V416.1Z" transform="translate(-23.93 -296.57)"/><path class="cls-3" d="M376.82,382.51h25.73v7.79H386.11v8.25h14v7.78h-14v9.46h17.07v7.79H376.82Z" transform="translate(-23.93 -296.57)"/><path class="cls-3" d="M409.41,403.28c0-13.62,9-21.52,19.38-21.52a17.34,17.34,0,0,1,12.35,5.33l-4.89,6c-2.07-1.92-4.28-3.27-7.25-3.27-5.63,0-10.08,5-10.08,13.2,0,8.44,3.93,13.35,9.93,13.35a10.82,10.82,0,0,0,8-3.84l4.9,5.83a16.93,16.93,0,0,1-13.27,6C418.1,424.33,409.41,417.11,409.41,403.28Z" transform="translate(-23.93 -296.57)"/><path class="cls-3" d="M448,382.51h9.29v41.07H448Z" transform="translate(-23.93 -296.57)"/><path class="cls-3" d="M467,382.51H492.7v7.79H476.26v8.25h14v7.78h-14v9.46h17.07v7.79H467Z" transform="translate(-23.93 -296.57)"/><path class="cls-3" d="M501.5,382.51h9.28v33.28H527v7.79H501.5Z" transform="translate(-23.93 -296.57)"/></svg>